<svg version="1.1" xmlns="http://www.w3.org/2000/svg" viewBox="0 0 532.1734917182132 345.9823543005863" width="532.1734917182132" height="345.9823543005863">
  <!-- svg-source:excalidraw -->

  <defs>
    <style class="style-fonts">
      @font-face {
        font-family: "Virgil";
        src: url("https://excalidraw.com/Virgil.woff2");
      }
      @font-face {
        font-family: "Cascadia";
        src: url("https://excalidraw.com/Cascadia.woff2");
      }
      @font-face {
        font-family: "Assistant";
        src: url("https://excalidraw.com/Assistant-Regular.woff2");
      }
    </style>

  </defs>
  <rect x="0" y="0" width="532.1734917182132" height="345.9823543005863" fill="#ffffff"></rect><g stroke-linecap="round" transform="translate(152.4561419621939 9.999999999999886) rotate(0 108.77033451566444 53.95959064538681)"><path d="M106.01 0.3 C120.07 -0.69, 138.28 0.91, 152.08 3.75 C165.88 6.59, 178.99 11.94, 188.81 17.33 C198.64 22.71, 206.21 29.02, 211.02 36.05 C215.82 43.07, 218.79 52.21, 217.64 59.45 C216.5 66.7, 211.37 73.33, 204.17 79.53 C196.96 85.73, 186.13 92.32, 174.43 96.67 C162.73 101.02, 148.24 103.85, 133.95 105.63 C119.66 107.41, 103.43 108.52, 88.71 107.34 C73.99 106.15, 57.94 102.91, 45.64 98.52 C33.34 94.13, 22.45 87.29, 14.92 81 C7.38 74.7, 2.17 67.8, 0.45 60.75 C-1.27 53.71, 0.1 45.61, 4.61 38.75 C9.12 31.89, 17.82 25.35, 27.5 19.6 C37.19 13.84, 48.25 7.38, 62.74 4.22 C77.24 1.07, 104.36 1.05, 114.47 0.66 C124.58 0.27, 123.47 1.08, 123.4 1.88 M149.96 3.34 C163.79 5.37, 178.29 12.06, 188.37 17.54 C198.44 23.01, 205.74 29.51, 210.41 36.18 C215.09 42.85, 217.38 50.47, 216.43 57.54 C215.48 64.61, 211.85 72.31, 204.71 78.6 C197.57 84.89, 185.2 90.79, 173.61 95.29 C162.02 99.79, 149.24 103.71, 135.16 105.61 C121.09 107.52, 103.71 108.04, 89.17 106.73 C74.63 105.42, 60.15 101.82, 47.94 97.75 C35.72 93.68, 23.5 88.29, 15.89 82.29 C8.29 76.29, 4.23 69.24, 2.31 61.76 C0.39 54.27, 0.31 44.65, 4.36 37.37 C8.4 30.09, 16.97 23.57, 26.59 18.08 C36.2 12.59, 48.67 7.52, 62.05 4.42 C75.43 1.32, 91.99 -0.62, 106.86 -0.53 C121.73 -0.45, 143.95 3.87, 151.29 4.93 C158.64 5.99, 151.74 5.34, 150.93 5.83" stroke="#f08c00" stroke-width="2" fill="none"></path></g><g transform="translate(216.24425091386752 51.304398189983544) rotate(0 45.069984436035156 12.5)"><text x="45.069984436035156" y="17.52" font-family="Virgil, Segoe UI Emoji" font-size="20px" fill="#f08c00" text-anchor="middle" style="white-space: pre;" direction="ltr" dominant-baseline="alphabetic">0 1 * * *</text></g><g stroke-linecap="round" transform="translate(9.999999999999773 229.00449193213456) rotate(0 108.77033451566444 50.19431495609729)"><path d="M146.84 2.39 C160.55 4.04, 173.64 9.21, 184.18 14.07 C194.73 18.92, 204.4 25.29, 210.1 31.5 C215.8 37.72, 219.1 44.63, 218.38 51.36 C217.66 58.1, 212.59 65.58, 205.8 71.89 C199.01 78.19, 188.82 84.91, 177.64 89.19 C166.45 93.46, 152.67 95.81, 138.69 97.54 C124.71 99.27, 108.25 100.46, 93.74 99.58 C79.24 98.71, 64.06 95.77, 51.66 92.27 C39.27 88.78, 27.68 84.14, 19.39 78.63 C11.11 73.12, 4.73 66.09, 1.98 59.2 C-0.77 52.32, -0.59 43.82, 2.91 37.32 C6.4 30.82, 13.85 25.42, 22.93 20.21 C32.01 14.99, 44.19 9.23, 57.41 6.05 C70.63 2.86, 84.33 0.93, 102.24 1.11 C120.15 1.29, 152.07 5.04, 164.87 7.15 C177.67 9.27, 179.86 12.95, 179.06 13.79 M156.01 5.88 C169.2 8.07, 182.58 13.49, 191.97 18.39 C201.37 23.28, 208.08 28.76, 212.37 35.26 C216.66 41.75, 219.78 50.5, 217.7 57.37 C215.62 64.25, 208.01 70.58, 199.88 76.5 C191.74 82.43, 180.89 89.02, 168.87 92.92 C156.86 96.83, 142.02 99.04, 127.77 99.94 C113.52 100.84, 97.75 100.06, 83.36 98.33 C68.96 96.6, 52.99 93.49, 41.41 89.54 C29.83 85.59, 20.91 80.72, 13.87 74.62 C6.83 68.52, 0.17 59.94, -0.83 52.95 C-1.84 45.96, 2.42 39.14, 7.86 32.68 C13.3 26.21, 21.8 19.06, 31.81 14.14 C41.83 9.23, 54.5 5.45, 67.93 3.2 C81.35 0.95, 97.81 0.54, 112.36 0.65 C126.9 0.77, 147.79 3.04, 155.18 3.89 C162.56 4.75, 157.29 4.98, 156.66 5.8" stroke="#f08c00" stroke-width="2" fill="none"></path></g><g transform="translate(69.37811291895855 266.70606640576204) rotate(0 49.47998046875 12.5)"><text x="49.47998046875" y="17.52" font-family="Virgil, Segoe UI Emoji" font-size="20px" fill="#f08c00" text-anchor="middle" style="white-space: pre;" direction="ltr" dominant-baseline="alphabetic">0 2 * * *</text></g><g stroke-linecap="round" transform="translate(304.6328226868843 228.06317300981266) rotate(0 108.77033451566444 53.95959064538681)"><path d="M156.36 4.63 C169.86 7.09, 183.43 13.71, 192.79 19.53 C202.14 25.35, 208.6 32.42, 212.49 39.55 C216.38 46.68, 218.15 54.99, 216.13 62.33 C214.12 69.67, 208.13 77.47, 200.4 83.6 C192.67 89.74, 181.88 95.29, 169.76 99.15 C157.65 103, 142.42 105.61, 127.71 106.76 C113 107.9, 95.68 107.83, 81.49 106.03 C67.29 104.22, 53.98 100.25, 42.53 95.91 C31.08 91.57, 19.67 86.39, 12.79 80.01 C5.91 73.62, 2.26 65.19, 1.24 57.59 C0.21 49.98, 1.69 41.1, 6.64 34.37 C11.59 27.64, 20.53 22.16, 30.93 17.22 C41.33 12.29, 55.31 7.61, 69.05 4.77 C82.79 1.94, 97.22 -0.46, 113.36 0.18 C129.49 0.83, 155.8 6.63, 165.83 8.65 C175.86 10.66, 174.55 11.74, 173.53 12.29 M151.33 3.64 C165.01 5.83, 179.57 11.77, 189.69 17.41 C199.81 23.04, 207.58 30.63, 212.05 37.47 C216.52 44.31, 217.95 51.13, 216.52 58.45 C215.1 65.78, 210.46 75.15, 203.51 81.42 C196.55 87.69, 186.69 91.66, 174.79 96.07 C162.89 100.48, 146.7 105.86, 132.12 107.88 C117.54 109.89, 101.83 109.83, 87.29 108.18 C72.76 106.53, 56.96 102.43, 44.89 97.96 C32.82 93.49, 22.14 87.86, 14.89 81.38 C7.63 74.9, 3.26 66.11, 1.39 59.08 C-0.48 52.04, -0.55 45.99, 3.68 39.17 C7.91 32.36, 16.96 24.07, 26.75 18.18 C36.54 12.3, 49.05 7.04, 62.39 3.89 C75.74 0.73, 91.94 -0.86, 106.83 -0.74 C121.73 -0.62, 144.59 3.65, 151.76 4.61 C158.93 5.57, 150.36 4.38, 149.84 5.02" stroke="#f08c00" stroke-width="2" fill="none"></path></g><g transform="translate(361.6109340799642 269.3675711997963) rotate(0 51.879981994628906 12.5)"><text x="51.879981994628906" y="17.52" font-family="Virgil, Segoe UI Emoji" font-size="20px" fill="#f08c00" text-anchor="middle" style="white-space: pre;" direction="ltr" dominant-baseline="alphabetic">30 1 * * *</text></g><g mask="url(#mask-J_7yvsuhBP-L3iQeJR-1e)" stroke-linecap="round"><g transform="translate(158.7190483926231 231.5150747293477) rotate(0 20.50842748537343 -61.01418195180008)"><path d="M0 0 C15.29 -43.59, 27.77 -82.53, 41.02 -122.03 M0 0 C9.01 -28.06, 18.3 -53.8, 41.02 -122.03" stroke="#f08c00" stroke-width="2" fill="none"></path></g></g><mask id="mask-J_7yvsuhBP-L3iQeJR-1e"><rect x="0" y="0" fill="#fff" width="299.73590336336997" height="453.54343863294787"></rect><rect x="158.76749968170725" y="158.0008927775475" fill="#000" width="40.919952392578125" height="25" opacity="1"></rect></mask><g transform="translate(158.7674996817077 158.0008927775475) rotate(0 20.459976196289062 12.5)"><text x="20.459976196289062" y="17.52" font-family="Virgil, Segoe UI Emoji" font-size="20px" fill="#f08c00" text-anchor="middle" style="white-space: pre;" direction="ltr" dominant-baseline="alphabetic">hour</text></g><g mask="url(#mask-0jMW0yCPcyEAkctiM5Zzr)" stroke-linecap="round"><g transform="translate(316.1487561195338 111.54525953913492) rotate(0 34.803137640356454 58.644893426264844)"><path d="M0 0 C21.62 35.91, 39.18 68, 69.61 117.29 M0 0 C23.01 39.64, 47.74 78.6, 69.61 117.29" stroke="#f08c00" stroke-width="2" fill="none"></path></g></g><mask id="mask-0jMW0yCPcyEAkctiM5Zzr"><rect x="0" y="0" fill="#fff" width="485.7550314002467" height="328.8350463916646"></rect><rect x="320.9619264136991" y="157.69015296539988" fill="#000" width="59.97993469238281" height="25" opacity="1"></rect></mask><g transform="translate(320.9619264136991 157.69015296539965) rotate(0 29.989967346191406 12.5)"><text x="29.989967346191406" y="17.52" font-family="Virgil, Segoe UI Emoji" font-size="20px" fill="#f08c00" text-anchor="middle" style="white-space: pre;" direction="ltr" dominant-baseline="alphabetic">minute</text></g></svg>