<?xml version="1.0" standalone="no"?>
<!DOCTYPE svg PUBLIC "-//W3C//DTD SVG 20010904//EN"
 "http://www.w3.org/TR/2001/REC-SVG-20010904/DTD/svg10.dtd">
<svg version="1.0" xmlns="http://www.w3.org/2000/svg"
 width="700.000000pt" height="700.000000pt" viewBox="0 0 700.000000 700.000000"
 preserveAspectRatio="xMidYMid meet">
<metadata>
Created by potrace 1.14, written by Peter Selinger 2001-2017
</metadata>
<g transform="translate(0.000000,700.000000) scale(0.100000,-0.100000)"
fill="#000000" stroke="none">
<path d="M1253 5919 c-13 -4 -23 -12 -23 -17 0 -5 18 -37 40 -71 30 -46 36
-61 23 -57 -74 23 -216 27 -236 7 -15 -15 0 -41 68 -117 33 -36 77 -91 98
-122 39 -57 37 -71 -7 -72 -37 0 -149 -63 -196 -110 -75 -74 -112 -158 -124
-280 -13 -138 -104 -303 -235 -428 -66 -64 -75 -68 -228 -127 -282 -109 -342
-187 -307 -400 13 -83 93 -228 155 -279 103 -86 311 -167 464 -181 39 -3 93
-10 120 -15 89 -16 138 -20 270 -26 148 -6 192 -20 250 -81 76 -79 90 -116
225 -593 45 -157 83 -292 85 -300 8 -39 89 -299 115 -369 44 -123 64 -162 115
-232 70 -94 156 -277 184 -389 5 -19 18 -66 29 -105 12 -38 37 -151 56 -250
44 -224 45 -227 52 -300 12 -124 39 -161 132 -181 77 -16 235 -15 289 1 85 26
110 66 118 191 3 49 10 109 15 134 22 103 31 178 35 300 5 116 13 170 37 248
59 195 197 351 396 451 119 60 320 118 467 136 28 3 66 8 85 11 88 13 359 12
446 -1 312 -48 488 -231 548 -573 15 -85 19 -290 6 -347 -5 -22 -11 -51 -13
-65 -3 -14 -12 -60 -21 -103 -57 -273 20 -398 243 -396 91 0 179 17 228 42 37
20 133 129 133 151 0 3 32 57 70 121 88 145 144 258 205 416 61 159 114 238
223 336 130 117 188 184 274 318 114 178 223 446 274 676 2 10 6 27 8 37 12
51 45 234 50 277 10 77 17 137 21 170 3 25 18 292 18 333 0 6 3 12 7 12 3 0
12 -35 19 -77 7 -43 14 -87 16 -98 1 -11 6 -49 10 -85 4 -36 9 -76 11 -90 2
-14 6 -97 9 -185 3 -88 8 -170 11 -182 2 -13 6 -35 9 -50 12 -61 71 -111 118
-99 70 17 99 102 100 285 0 123 -10 366 -18 426 -2 17 -7 57 -11 90 -13 120
-19 161 -45 310 -86 471 -263 876 -476 1087 -95 94 -141 126 -236 160 -160 58
-332 40 -544 -57 -177 -82 -490 -164 -718 -190 -33 -4 -69 -9 -79 -11 -128
-24 -932 -23 -1066 1 -8 1 -53 6 -100 10 -47 4 -96 9 -110 11 -14 1 -54 6 -90
9 -36 3 -87 10 -115 15 -27 5 -72 11 -100 14 -27 3 -61 8 -75 10 -14 3 -43 7
-65 11 -22 3 -47 7 -55 10 -8 2 -32 6 -53 9 -21 4 -73 13 -115 22 -42 9 -90
18 -106 21 -24 4 -325 80 -393 99 -20 6 -17 10 35 48 31 23 70 49 85 59 56 36
52 88 -11 150 -97 94 -288 139 -447 105 l-46 -10 -47 53 c-117 129 -227 223
-333 282 -78 44 -212 73 -256 56z"/>
</g>
</svg>
